<?xml version="1.0" encoding="UTF-8" standalone="no"?>
<svg width="1920" height="300" viewBox="0 0 1920 300" xmlns="http://www.w3.org/2000/svg" preserveAspectRatio="none">
  <style>
    .mountain-back { fill: #1A3A5A; opacity: 0.7; }
    .mountain-mid { fill: #1A3A5A; opacity: 0.8; }
    .mountain-front { fill: #1A3A5A; }
    .snow { fill: #FFFFFF; }
  </style>
  
  <!-- Background Mountains -->
  <path class="mountain-back" d="M0,300 L300,100 L600,300 Z"/>
  <path class="mountain-back" d="M500,300 L800,50 L1100,300 Z"/>
  <path class="mountain-back" d="M1000,300 L1300,120 L1600,300 Z"/>
  <path class="mountain-back" d="M1500,300 L1700,150 L1920,300 Z"/>
  
  <!-- Mid Mountains -->
  <path class="mountain-mid" d="M-100,300 L200,80 L500,300 Z"/>
  <path class="mountain-mid" d="M400,300 L700,60 L1000,300 Z"/>
  <path class="mountain-mid" d="M900,300 L1200,90 L1500,300 Z"/>
  <path class="mountain-mid" d="M1400,300 L1650,70 L1920,300 Z"/>
  
  <!-- Front Mountain -->
  <path class="mountain-front" d="M-100,300 L400,30 L900,300 Z"/>
  <path class="mountain-front" d="M800,300 L1300,40 L1800,300 Z"/>
  <path class="mountain-front" d="M1700,300 L1800,150 L1920,300 Z"/>
  
  <!-- Snow Caps -->
  <path class="snow" d="M400,30 L450,80 L400,60 L350,90 L400,30 Z"/>
  <path class="snow" d="M1300,40 L1350,90 L1300,70 L1250,100 L1300,40 Z"/>
  <path class="snow" d="M200,80 L230,110 L170,110 Z"/>
  <path class="snow" d="M700,60 L730,90 L670,90 Z"/>
  <path class="snow" d="M1200,90 L1230,120 L1170,120 Z"/>
  <path class="snow" d="M1650,70 L1680,100 L1620,100 Z"/>
</svg>
